<mxfile host="app.diagrams.net" modified="2023-12-03T15:10:19.160Z" agent="Mozilla/5.0 (Windows NT 10.0; Win64; x64) AppleWebKit/537.36 (KHTML, like Gecko) Chrome/119.0.0.0 Safari/537.36" version="22.1.5" etag="gM6nY5qYZq9TthA7Oup7" type="github">
  <diagram name="Page-1" id="RorgwmVyIAR3Izy7LTdS">
    <mxGraphModel>
      <root>
        <mxCell id="0" />
        <mxCell id="1" parent="0" />
      </root>
    </mxGraphModel>
  </diagram>
</mxfile>
